<svg width="96" height="98.8" xmlns="http://www.w3.org/2000/svg" style="vector-effect: non-scaling-stroke;" stroke="null">

 <g stroke="null">
  <title stroke="null">background</title>
  <rect stroke="null" fill="none" id="canvas_background" height="671" width="1182" y="-1" x="-1"/>
 </g>
 <g stroke="null">
  <title stroke="null">Layer 1</title>
  <g style="vector-effect: non-scaling-stroke;" stroke="null" id="svg_1">
   <path style="vector-effect: non-scaling-stroke;" stroke="null" id="svg_2" d="m-176.1,41.6l0,2.4c0,1.8 -0.1,3.5 -0.2,5.2c-0.1,1.6 -0.3,3.2 -0.5,4.6l13.1,0l2,-1.8l2.4,4l-12.8,0l0,16.1c0,1.2 0.6,1.8 1.8,1.8l3.6,0c1,0 1.7,-0.6 2.2,-1.9c0.5,-1.3 0.7,-3.3 0.6,-6l4.5,1.1c0.8,0.2 1.4,0.6 1.7,1.1c0.3,0.5 0.3,1.3 0.2,2.2c-0.4,2.9 -1.1,5.1 -2.4,6.5s-3.1,2.1 -5.4,2.1l-8.8,0c-1.4,0 -2.6,-0.5 -3.5,-1.6c-0.9,-1.1 -1.4,-2.6 -1.4,-4.5l0,-10.4c-1,2.4 -2.1,4.4 -3.5,6.2c-1.4,1.8 -3,3.3 -4.7,4.7c-1.8,1.3 -3.7,2.5 -5.8,3.5c-2.1,1 -4.4,1.8 -6.8,2.5c4.6,-3.2 8.1,-6.7 10.7,-10.5c2.6,-3.8 4.3,-8.1 5.3,-12.7l-13.7,0l-1.1,-2.2l15,0c0.2,-1.3 0.3,-2.6 0.5,-3.9c0.1,-1.3 0.2,-2.7 0.2,-4.2l0,-4.3l-12.1,0l-1.2,-2.1l30,0l2,-1.8l2.4,4l-14.3,0l0,-0.1z"/>
   <path style="vector-effect: non-scaling-stroke;" stroke="null" id="svg_3" d="m-114.2,54.2l-6.8,0l0,-1.9l-4,0c1.9,3.2 4.1,5.8 6.7,7.7c2.6,1.9 5.5,3.4 8.9,4.2l-4.2,5.9c-0.2,0.3 -0.6,0.4 -1,0.5c-0.4,0 -0.8,-0.1 -1.1,-0.3c-1.1,-0.6 -2.1,-1.5 -3.2,-2.7c-1.1,-1.2 -2.2,-2.5 -3.2,-4.1c-1,-1.6 -2,-3.3 -2.9,-5.2c-0.9,-1.9 -1.7,-3.9 -2.4,-6l-11.9,0c-0.2,1.9 -0.6,3.8 -1.2,5.7c-0.6,1.9 -1.4,3.6 -2.5,5.3c-1.1,1.7 -2.4,3.2 -3.9,4.6c-1.6,1.4 -3.4,2.7 -5.5,3.8c1.2,-1.7 2.2,-3.4 3,-5.1c0.8,-1.7 1.5,-3.5 2,-5.4c0.5,-1.9 0.9,-3.9 1.1,-6c0.2,-2.1 0.3,-4.4 0.3,-6.9l0,-11.7l9.1,1.2l-2.2,1.7l0,0.1l18,0l1.2,-1.9l7,2l-1.4,2.2l0,12.3l0.1,0zm-12.6,25.2c-1.2,-1.3 -2.4,-2.6 -3.8,-3.8c-1.4,-1.3 -2.8,-2.4 -4.2,-3.5c-1.4,-1.1 -2.8,-2 -4.2,-2.9c-1.4,-0.8 -2.6,-1.4 -3.7,-1.9c4.1,0.6 7.5,1.2 10.2,1.9c2.7,0.7 4.8,1.4 6.3,2.1c1.5,0.7 2.5,1.4 2.9,2.1c0.4,0.7 0.4,1.3 0,1.8l-3.5,4.2zm-12.3,-30.3c0,0.2 0,0.4 0,0.6c0,0.2 0,0.4 0,0.5l18,0l0,-8.4l-18,0l0,7.3zm9.6,18.1c-0.5,-0.8 -1.1,-1.7 -1.7,-2.6c-0.7,-0.9 -1.4,-1.8 -2.2,-2.7c-0.8,-0.9 -1.6,-1.7 -2.5,-2.5c-0.9,-0.8 -1.7,-1.5 -2.6,-2c1.9,0.1 3.6,0.4 5.4,0.7c1.7,0.4 3.2,0.8 4.4,1.3c1.2,0.5 2,1.1 2.5,1.8c0.5,0.6 0.5,1.3 -0.1,2l-3.2,4z"/>
  </g>
  <g stroke="null" id="svg_4">
   <path stroke="null" id="svg_5" d="m-244.8,111.7l0,14.2c0,1.2 0.6,1.8 1.7,1.8l2.3,0c0.5,0 0.9,-0.1 1.2,-0.3s0.5,-0.5 0.7,-1c0.2,-0.4 0.3,-1 0.3,-1.8c0,-0.8 0.1,-1.7 0,-2.8l4.5,0.9c0.8,0.2 1.3,0.4 1.5,0.8s0.2,1.1 0.1,2c-0.2,1.5 -0.4,2.7 -0.8,3.6c-0.4,0.9 -0.8,1.7 -1.3,2.2c-0.5,0.5 -1.2,0.9 -2,1.1c-0.8,0.2 -1.6,0.3 -2.6,0.3l-7.4,0c-1.4,0 -2.6,-0.5 -3.6,-1.4c-1,-0.9 -1.5,-2.4 -1.5,-4.3l0,-15.3l-4.4,0c-0.4,3 -1.1,5.7 -2.2,8.1c-1.1,2.4 -2.4,4.5 -4.1,6.3c-1.6,1.8 -3.6,3.3 -5.8,4.4s-4.6,2 -7.2,2.5c1.6,-1 3.1,-2.2 4.5,-3.6c1.4,-1.4 2.6,-3.1 3.7,-4.9c1.1,-1.8 2,-3.8 2.7,-6c0.7,-2.2 1.2,-4.4 1.5,-6.8l-9.7,0l-1.1,-2.2l16.4,0l0,-19.5l8.8,1l-1.9,1.6l0,16.9l11.9,0l2,-1.8l2.4,4l-10.6,0zm-21.4,-4.1c-0.1,-1 -0.3,-2.1 -0.6,-3.3c-0.3,-1.2 -0.7,-2.4 -1.1,-3.6c-0.4,-1.2 -1,-2.4 -1.5,-3.6c-0.6,-1.2 -1.2,-2.3 -1.8,-3.3c1.1,0.4 2.2,0.9 3.3,1.6c1.1,0.6 2,1.3 2.9,2c0.9,0.7 1.7,1.5 2.4,2.2c0.7,0.8 1.2,1.5 1.5,2.2c0.3,0.7 0.4,1.3 0.4,1.9c-0.1,0.6 -0.4,1 -1,1.4l-4.5,2.5zm30,-9.7c-1.5,2.1 -3.3,4.1 -5.4,5.8c-2.1,1.7 -4.3,3.1 -6.5,4.2c1.4,-2.4 2.7,-4.9 3.7,-7.5c1,-2.6 1.8,-5.1 2.3,-7.4l5.3,2.4c0.6,0.3 0.9,0.6 1,1.1c0,0.5 -0.1,0.9 -0.4,1.4z"/>
   <path stroke="null" id="svg_6" d="m-218.3,101.8l0,-4.7l-8.2,0l-1.1,-2.1l9.3,0l0,-5l8.8,1l-1.9,1.6l0,2.4l10.7,0l0,-5l8.8,1l-1.9,1.6l0,2.4l4.8,0l2,-1.8l2.4,4l-9.3,0l0,4.7l-6.9,0l0,-4.7l-10.6,0l0,4.7l-6.9,0l0,-0.1zm13.3,6.2l16,0l2,-1.8l2.4,4l-30,0l0,17.6l23,0l2,-1.8l2.4,4l-27.3,0l0,2.8l-6.9,0l0,-22.6l-5,0l-1.2,-2.2l21.1,0c-0.6,-1.5 -1.3,-2.8 -1.9,-3.9c-0.7,-1.1 -1.4,-2.1 -2.2,-3c1.5,-0.1 2.9,0.1 4.4,0.4c1.5,0.3 2.7,0.7 3.7,1.2c1,0.5 1.7,1.1 2,1.6c0.3,0.6 0.1,1.1 -0.6,1.5l-3.9,2.2z"/>
  </g>
  <g stroke="null" id="svg_7"/>
  <g stroke="null" id="svg_8"/>
  <g stroke="null" id="svg_9"/>
  <g stroke="null" id="svg_10"/>
  <g stroke="null" id="svg_11"/>
  <text stroke="#000" transform="matrix(1,0,0,1.67266638104528,0,-17.336204856869717) " font-weight="bold" xml:space="preserve" text-anchor="start" font-family="'Times New Roman', Times, serif" font-size="24" id="svg_16" y="36.514897" x="4.5" fill-opacity="null" stroke-opacity="null" stroke-width="0" fill="#000000">Monster</text>
  <text stroke="#000" transform="matrix(1.481962697348818,0,0,1.163673954021682,-27.39425231929325,-13.59906255902818) " font-weight="bold" xml:space="preserve" text-anchor="start" font-family="'Times New Roman', Times, serif" font-size="27" id="svg_17" y="83.274883" x="30.548685" fill-opacity="null" stroke-opacity="null" stroke-width="0" fill="#000000">vivi</text>
 </g>
</svg>